<svg width="243" height="578" viewBox="0 0 243 578" fill="none" xmlns="http://www.w3.org/2000/svg">
<circle cx="48.5" cy="385.5" r="46.5" fill="#0F64BE"/>
<circle cx="81.5" cy="317.5" r="26.5" fill="#135695"/>
<circle cx="28.5" cy="290.5" r="26.5" fill="#28B4FF"/>
<circle cx="177.5" cy="328.5" r="64.5" fill="#50CFFF"/>
<circle cx="194" cy="457" r="48" fill="#28B4FF"/>
<circle cx="200.5" cy="541.5" r="31.5" fill="#0A7EEB"/>
<circle cx="152" cy="559" r="17" fill="#0F64BE"/>
<circle cx="118.5" cy="565.5" r="11.5" fill="#50CFFF"/>
<circle cx="130" cy="528" r="14" fill="#11355A"/>
<circle cx="22" cy="236" r="22" fill="#11355A"/>
<circle cx="16" cy="193" r="16" fill="#135695"/>
<circle cx="95.5" cy="241.5" r="48.5" fill="#0A7EEB"/>
<circle cx="53" cy="150" r="40" fill="#88E2FF"/>
<circle cx="112" cy="126" r="19" fill="#11355A"/>
<circle cx="130" cy="188" r="14" fill="#B9ECFF"/>
<circle cx="112" cy="164" r="9" fill="#135695"/>
<circle cx="130.5" cy="147.5" r="7.5" fill="#50CFFF"/>
<circle cx="140" cy="96" r="19" fill="#0A95FF"/>
<circle cx="96" cy="71" r="19" fill="#28B4FF"/>
<circle cx="93" cy="19" r="19" fill="#B9ECFF"/>
<circle cx="155" cy="14" r="14" fill="#50CFFF"/>
<circle cx="138" cy="38" r="14" fill="#88E2FF"/>
<circle cx="129" cy="68" r="10" fill="#B9ECFF"/>
<circle cx="168.5" cy="100.5" r="7.5" fill="#28B4FF"/>
<circle cx="114" cy="47" r="9" fill="#0A95FF"/>
<circle cx="126" cy="12" r="12" fill="#0A95FF"/>
<circle cx="160" cy="58" r="14" fill="#135695"/>
<circle cx="81" cy="103" r="12" fill="#B9ECFF"/>
<circle cx="190" cy="160" r="49" fill="#B9ECFF"/>
<circle cx="218" cy="241" r="25" fill="#11355A"/>
<circle cx="161.5" cy="234.5" r="14.5" fill="#28B4FF"/>
<circle cx="14.5" cy="331.5" r="14.5" fill="#D7F3FF"/>
<circle cx="182.5" cy="253.5" r="7.5" fill="#0A95FF"/>
<circle cx="201.5" cy="397.5" r="7.5" fill="#B9ECFF"/>
<circle cx="162.5" cy="516.5" r="11.5" fill="#D7F3FF"/>
<circle cx="228.5" cy="507.5" r="11.5" fill="#0A7EEB"/>
<circle cx="228.5" cy="404.5" r="11.5" fill="#D7F3FF"/>
<circle cx="235.5" cy="379.5" r="6.5" fill="#11355A"/>
<circle cx="57" cy="523" r="55" fill="#B9ECFF"/>
<circle cx="123.5" cy="415.5" r="28.5" fill="#0F64BE"/>
<circle cx="123.5" cy="479.5" r="23.5" fill="#88E2FF"/>
<circle cx="12.5" cy="469.5" r="12.5" fill="#0F64BE"/>
<circle cx="26.5" cy="444.5" r="12.5" fill="#B9ECFF"/>
<circle cx="49" cy="457" r="10" fill="#88E2FF"/>
<circle cx="84.5" cy="450.5" r="17.5" fill="#0A7EEB"/>
</svg>
